<?xml version="1.0" encoding="UTF-8" standalone="no"?>
<svg
   xmlns:dc="http://purl.org/dc/elements/1.1/"
   xmlns:cc="http://creativecommons.org/ns#"
   xmlns:rdf="http://www.w3.org/1999/02/22-rdf-syntax-ns#"
   xmlns:svg="http://www.w3.org/2000/svg"
   xmlns="http://www.w3.org/2000/svg"
   xmlns:sodipodi="http://sodipodi.sourceforge.net/DTD/sodipodi-0.dtd"
   xmlns:inkscape="http://www.inkscape.org/namespaces/inkscape"
   inkscape:version="1.0 (4035a4fb49, 2020-05-01)"
   height="127"
   width="912"
   sodipodi:docname="logo.svg"
   version="1.1"
   viewBox="0 0 912 127"
   data-name="Camada 1"
   id="Camada_1">
  <metadata
     id="metadata154">
    <rdf:RDF>
      <cc:Work
         rdf:about="">
        <dc:format>image/svg+xml</dc:format>
        <dc:type
           rdf:resource="http://purl.org/dc/dcmitype/StillImage" />
        <dc:title></dc:title>
      </cc:Work>
    </rdf:RDF>
  </metadata>
  <sodipodi:namedview
     inkscape:current-layer="Camada_1"
     inkscape:window-maximized="1"
     inkscape:window-y="-8"
     inkscape:window-x="-8"
     inkscape:cy="136.50429"
     inkscape:cx="332.00541"
     inkscape:zoom="1.2689249"
     showgrid="false"
     id="namedview152"
     inkscape:window-height="837"
     inkscape:window-width="1600"
     inkscape:pageshadow="2"
     inkscape:pageopacity="0"
     guidetolerance="10"
     gridtolerance="10"
     objecttolerance="10"
     borderopacity="1"
     bordercolor="#666666"
     pagecolor="#ffffff" />
  <defs
     id="defs85">
    <style
       id="style83">.cls-1{fill:#1d3662;}.cls-1,.cls-2,.cls-3{fill-rule:evenodd;}.cls-2{fill:#c41718;}.cls-3{fill:#fff;}</style>
  </defs>
  <path
     style="fill:#1d3662;fill-rule:evenodd"
     class="cls-1"
     d="m 179.35372,69.186635 5.56,1.3 c 0.09,1 0.13,1.94 0.13,2.7 a 11.27,11.27 0 0 1 -4.74,9.5 q -4.74,3.57 -12.71,3.56 -20,0 -20,-20.42 0,-9.69 5.83,-15.72 5.83,-6.03 15.17,-6 14.58,0 14.59,12.74 l -5.6,2.33 c 0.07,-1.19 0.1,-2.12 0.1,-2.78 q 0,-9 -8,-9 -8.44,0 -8.43,19.17 0,16.49 9.41,16.48 a 8.43,8.43 0 0 0 6.47,-2.81 10,10 0 0 0 2.58,-7 27.25,27.25 0 0 0 -0.42,-4"
     id="path87" />
  <path
     style="fill:#1d3662;fill-rule:evenodd"
     class="cls-1"
     d="m 194.89372,72.626635 h 11 l -5.31,-18.11 m 9.78,-9.77 12.51,40.82 h -13.04 l -2.69,-8.83 h -13.53 l -2.87,8.85 h -5.1 l 13.31,-40.85 z"
     id="path89" />
  <path
     style="fill:#1d3662;fill-rule:evenodd"
     class="cls-1"
     d="m 255.83372,56.166635 -6.05,1 a 12.33,12.33 0 0 0 0.39,-2.76 q 0,-7.11 -9.51,-7.11 -7.5,0 -7.51,4.9 0,3.69 8.4,6.32 16.2,5.06 16.19,14.94 a 11.22,11.22 0 0 1 -4.54,9.33 c -3,2.33 -7,3.51 -12.09,3.51 q -16.68,0 -16.69,-11.75 a 21,21 0 0 1 0.17,-2.37 l 6.24,-1.24 a 17.39,17.39 0 0 0 -0.72,4.52 q 0,7.61 9.58,7.6 7.67,0 7.67,-5.47 c 0,-2.72 -3.05,-5.1 -9.18,-7.15 q -13.26,-4.43 -13.27,-14.15 a 10.57,10.57 0 0 1 4.43,-8.86 q 4.43,-3.37 11.64,-3.37 14.82,0 14.81,12.11"
     id="path91" />
  <path
     style="fill:#1d3662;fill-rule:evenodd"
     class="cls-1"
     d="m 268.35372,72.626635 h 11 l -5.3,-18.11 m 9.78,-9.78 12.51,40.82 h -13.08 l -2.66,-8.82 h -13.53 l -2.87,8.85 h -5.1 l 13.3,-40.85 z"
     id="path93" />
  <polyline
     transform="translate(-43.166282,-332.26337)"
     style="fill:#1d3662;fill-rule:evenodd"
     class="cls-1"
     points="394.82 377 394.82 381.1 383.78 381.1 383.78 417.83 369.96 417.83 369.96 381.1 358.87 381.1 358.87 377"
     id="polyline95" />
  <polyline
     transform="translate(-43.166282,-332.26337)"
     style="fill:#1d3662;fill-rule:evenodd"
     class="cls-1"
     points="411.22 397.51 411.22 417.83 398.18 417.83 398.18 377 411.22 377 411.22 393.42 421.85 393.42 421.85 377 434.89 377 434.89 417.83 421.85 417.83 421.85 397.51"
     id="polyline97" />
  <path
     style="fill:#1d3662;fill-rule:evenodd"
     class="cls-1"
     d="m 417.48372,47.286635 a 4.93,4.93 0 0 0 -5,3.69 q -1.29,3.69 -1.3,14.16 c 0,7 0.44,11.7 1.3,14.16 a 5.21,5.21 0 0 0 10,0 c 0.86,-2.46 1.3,-7.17 1.3,-14.16 0,-6.99 -0.44,-11.68 -1.3,-14.15 a 4.93,4.93 0 0 0 -5,-3.7 m 0.36,-3.26 q 19.62,0 19.62,21.11 0,21.11 -20,21.12 -20,0 -20,-21.6 0,-20.62 20.36,-20.63"
     id="path99" />
  <polyline
     transform="translate(-43.166282,-332.26337)"
     style="fill:#1d3662;fill-rule:evenodd"
     class="cls-1"
     points="528.15 377 528.15 417.83 515.58 417.83 515.58 389.42 506.82 417.83 499.54 417.83 490.55 389.9 490.55 417.83 486.16 417.83 486.16 377 499.4 377 507.11 401.65 514.79 377"
     id="polyline101" />
  <path
     style="fill:#1d3662;fill-rule:evenodd"
     class="cls-1"
     d="m 497.65372,72.626635 h 11 l -5.3,-18.11 m 9.78,-9.77 12.51,40.82 h -13.08 l -2.66,-8.83 h -13.54 l -2.86,8.85 h -5.1 l 13.3,-40.85 z"
     id="path103" />
  <path
     style="fill:#1d3662;fill-rule:evenodd"
     class="cls-1"
     d="m 558.56372,56.166635 -6.05,1 a 12.94,12.94 0 0 0 0.39,-2.76 q 0,-7.11 -9.51,-7.11 -7.5,0 -7.51,4.9 0,3.69 8.4,6.32 16.2,5.06 16.19,14.94 a 11.22,11.22 0 0 1 -4.54,9.33 c -3,2.33 -7.05,3.51 -12.09,3.51 q -16.68,0 -16.69,-11.75 a 21,21 0 0 1 0.17,-2.37 l 6.28,-1.26 a 17.39,17.39 0 0 0 -0.72,4.52 q 0,7.61 9.58,7.6 7.67,0 7.67,-5.47 c 0,-2.72 -3,-5.1 -9.18,-7.15 q -13.26,-4.43 -13.27,-14.15 a 10.57,10.57 0 0 1 4.43,-8.86 q 4.43,-3.37 11.64,-3.37 14.82,0 14.81,12.11"
     id="path105" />
  <path
     style="fill:#1d3662;fill-rule:evenodd"
     class="cls-1"
     d="m 606.90372,44.736635 v 26.25 q 0,15.47 -12,15.47 a 14.62,14.62 0 0 1 -9,-2.74 8.07,8.07 0 0 1 -3.69,-6.65 21.32,21.32 0 0 1 1.06,-5.89 l 4.77,-1.17 a 27.94,27.94 0 0 0 -1.12,6.13 c 0,4.43 1.47,6.64 4.39,6.64 1.68,0 2.53,-2.07 2.53,-6.22 v -31.82"
     id="path107" />
  <polyline
     transform="translate(-43.166282,-332.26337)"
     style="fill:#1d3662;fill-rule:evenodd"
     class="cls-1"
     points="686.69 377 686.69 381.1 670.59 381.1 670.59 393.45 684.12 393.45 684.12 397.55 670.59 397.55 670.59 413.74 689.42 413.74 689.42 417.83 657.55 417.83 657.55 377"
     id="polyline109" />
  <polyline
     transform="translate(-43.166282,-332.26337)"
     style="fill:#1d3662;fill-rule:evenodd"
     class="cls-1"
     points="722.8 377 722.8 381.1 706.5 381.1 706.5 394.71 720.33 394.71 720.33 398.8 706.5 398.8 706.5 417.83 693.47 417.83 693.47 377"
     id="polyline111" />
  <polyline
     transform="translate(-43.166282,-332.26337)"
     style="fill:#1d3662;fill-rule:evenodd"
     class="cls-1"
     points="756.49 377 756.49 381.1 740.19 381.1 740.19 394.71 754.01 394.71 754.01 398.8 740.19 398.8 740.19 417.83 727.15 417.83 727.15 377"
     id="polyline113" />
  <polyline
     transform="translate(-43.166282,-332.26337)"
     style="fill:#1d3662;fill-rule:evenodd"
     class="cls-1"
     points="789.98 377 789.98 381.1 773.87 381.1 773.87 393.45 787.4 393.45 787.4 397.55 773.87 397.55 773.87 413.74 792.71 413.74 792.71 417.83 760.83 417.83 760.83 377"
     id="polyline115" />
  <path
     style="fill:#1d3662;fill-rule:evenodd"
     class="cls-1"
     d="m 766.66372,62.566635 h 2.63 q 7.39,0 7.4,-7 0.01,-7 -7.4,-7 h -2.63 m -13,37.06 v -40.89 h 19.33 c 5,0 9,0.95 12,2.88 a 8.82,8.82 0 0 1 4.5,7.73 q 0,7.41 -9.67,9.66 5,1.68 6.44,3.69 c 1,1.32 1.64,3.92 2,7.76 0.41,4.6 1.26,7.62 2.53,9.1 h -14.15 a 16.5,16.5 0 0 1 -1.35,-7.08 l -0.07,-2.43 -0.07,-3.06 q 0,-7 -6.26,-7.05 h -2.23 v 19.62 z"
     id="path117" />
  <path
     style="fill:#1d3662;fill-rule:evenodd"
     class="cls-1"
     d="m 825.59372,56.166635 -6,1 a 12.94,12.94 0 0 0 0.39,-2.76 q 0,-7.11 -9.51,-7.11 -7.5,0 -7.51,4.9 0,3.69 8.4,6.32 16.2,5.06 16.19,14.94 a 11.22,11.22 0 0 1 -4.54,9.33 c -3,2.33 -7,3.51 -12.09,3.51 q -16.68,0 -16.69,-11.75 a 21,21 0 0 1 0.17,-2.37 l 6.28,-1.26 a 17.39,17.39 0 0 0 -0.72,4.52 q 0,7.61 9.58,7.6 7.67,0 7.67,-5.47 c 0,-2.72 -3.05,-5.1 -9.18,-7.15 q -13.26,-4.43 -13.27,-14.15 a 10.57,10.57 0 0 1 4.43,-8.86 q 4.43,-3.37 11.64,-3.37 14.82,0 14.81,12.11"
     id="path119" />
  <path
     style="fill:#1d3662;fill-rule:evenodd"
     class="cls-1"
     d="m 851.25372,47.286635 a 4.94,4.94 0 0 0 -5,3.69 q -1.29,3.69 -1.3,14.16 c 0,7 0.44,11.7 1.3,14.16 a 5.21,5.21 0 0 0 10,0 c 0.87,-2.46 1.31,-7.17 1.31,-14.16 0,-6.99 -0.44,-11.68 -1.31,-14.15 a 4.93,4.93 0 0 0 -5,-3.7 m 0.36,-3.26 q 19.62,0 19.62,21.11 0,21.11 -20,21.12 -20,0 -20,-21.6 0,-20.62 20.35,-20.63"
     id="path121" />
  <polyline
     transform="translate(-43.166282,-332.26337)"
     style="fill:#1d3662;fill-rule:evenodd"
     class="cls-1"
     points="953.03 377 953.03 417.83 943.06 417.83 924.28 391.99 924.28 417.83 919.9 417.83 919.9 377 928.17 377 948.65 404.91 948.65 377"
     id="polyline123" />
  <path
     style="fill:#c41718;fill-rule:evenodd"
     class="cls-2"
     d="m 9.0537185,75.166635 -7.91,-7.88 c 13.9999995,-28.74 46.3099995,-44.64 71.5099995,-23.8 -13,-7.8 -49.17,-8.71 -63.5999995,31.68"
     id="path125" />
  <path
     style="fill:#1d3662;fill-rule:evenodd"
     class="cls-1"
     d="m 46.543718,79.636635 a 21.29,21.29 0 1 1 30.11,0 21.35,21.35 0 0 1 -30.11,0"
     id="path127" />
  <polygon
     transform="translate(-43.166282,-332.26337)"
     style="fill:#ffffff;fill-rule:evenodd"
     class="cls-3"
     points="102,387.22 96.44,385.81 101.29,382.75 100.92,377.03 105.33,380.69 110.65,378.57 108.53,383.89 112.19,388.3 106.47,387.93 103.41,392.77 "
     id="polygon129" />
  <polygon
     transform="translate(-43.166282,-332.26337)"
     style="fill:#ffffff;fill-rule:evenodd"
     class="cls-3"
     points="90.14,399.07 84.59,397.66 89.44,394.6 89.06,388.88 93.47,392.54 98.79,390.42 96.67,395.74 100.33,400.15 94.61,399.78 91.56,404.63 "
     id="polygon131" />
  <polygon
     transform="translate(-43.166282,-332.26337)"
     style="fill:#ffffff;fill-rule:evenodd"
     class="cls-3"
     points="114.39,399.61 108.84,398.2 113.68,395.14 113.31,389.42 117.72,393.08 123.04,390.96 120.92,396.28 124.58,400.69 118.86,400.32 115.8,405.16 "
     id="polygon133" />
  <polygon
     transform="translate(-43.166282,-332.26337)"
     style="fill:#ffffff;fill-rule:evenodd"
     class="cls-3"
     points="102.42,411.58 96.87,410.17 101.71,407.11 101.34,401.39 105.75,405.05 111.07,402.93 108.95,408.25 112.61,412.66 106.89,412.29 103.83,417.13 "
     id="polygon135" />
  <path
     style="fill:#c41718;fill-rule:evenodd"
     class="cls-2"
     d="m 114.19372,54.026635 7.9,7.89 c -14,28.73 -46.300002,44.629995 -71.500002,23.8 13,7.789998 49.160003,8.699998 63.600002,-31.69"
     id="path137" />
  <path
     style="fill:#c41718;fill-rule:evenodd"
     class="cls-2"
     d="m 51.063718,11.976635 7.89,-7.9000002 c 28.730003,14.0000002 44.630002,46.3000002 23.8,71.5000002 7.790003,-13 8.700003,-49.17 -31.69,-63.6"
     id="path139" />
  <path
     style="fill:#c41718;fill-rule:evenodd"
     class="cls-2"
     d="m 72.093718,117.26663 -7.88,7.9 c -28.74,-14 -44.64,-46.299995 -23.8,-71.499995 -7.8,13 -8.7,49.169995 31.68,63.599995"
     id="path141" />
  <path
     style="fill:#c41718;fill-rule:evenodd"
     class="cls-2"
     d="m 107.63372,47.736635 c -1.61,18.37 -23.720002,40.79 -42.180002,39.92 13.32,-1 35.520002,-23.27 32.670003,-49.46 z"
     id="path143" />
  <path
     style="fill:#c41718;fill-rule:evenodd"
     class="cls-2"
     d="m 25.123718,90.906635 c -2.85,-26.17 19.35,-48.45 32.71,-49.46 -18.46,-0.87 -40.57,21.56 -42.18,39.92 z"
     id="path145" />
  <path
     style="fill:#c41718;fill-rule:evenodd"
     class="cls-2"
     d="m 35.513718,27.506635 c 26.18,-2.85 48.44,19.36 49.45,32.67 0.87,-18.46 -21.55,-40.56 -39.92,-42.17 z"
     id="path147" />
  <path
     style="fill:#c41718;fill-rule:evenodd"
     class="cls-2"
     d="m 87.733721,101.56663 c -26.180003,2.85 -48.440003,-19.349995 -49.450003,-32.669995 -0.87,18.46 21.55,40.569995 39.92,42.179995 z"
     id="path149" />
</svg>
